<svg xmlns="http://www.w3.org/2000/svg" width="36" height="36" viewBox="0 0 36 36" fill="none">
  <rect width="36" height="36" rx="8" fill="#2563EB"/>
  <path d="M16 7a1.5 1.5 0 000 3h4a1.5 1.5 0 000-3h-4z" fill="white"/>
  <path fill-rule="evenodd" clip-rule="evenodd" d="M10 10.5a3 3 0 013-3 4.5 4.5 0 004.5 4.5h1a4.5 4.5 0 004.5-4.5 3 3 0 013 3V27a3 3 0 01-3 3H13a3 3 0 01-3-3V10.5zM14.5 16a1.5 1.5 0 000 3h.015a1.5 1.5 0 000-3H14.5zm4.5 0a1.5 1.5 0 000 3h4.5a1.5 1.5 0 000-3H19zm-4.5 6a1.5 1.5 0 100 3h.015a1.5 1.5 0 100-3H14.5zm4.5 0a1.5 1.5 0 100 3h4.5a1.5 1.5 0 100-3H19z" fill="white"/>
</svg>